<svg xmlns="http://www.w3.org/2000/svg" width="122" height="106" viewBox="0 0 122 106" fill="none">
<path d="M105.199 27.6999C102.362 24.8517 97.7244 24.8517 94.8868 27.6999L82.5674 40.0649C82.0829 40.5512 81.2524 40.5512 80.7679 40.0649L72.2551 31.5205C71.7706 31.0343 71.7706 30.2006 72.2551 29.7144L89.4192 12.4866C92.2568 9.6385 92.2568 4.98423 89.4192 2.1361C86.5816 -0.712033 81.9445 -0.712033 79.1069 2.1361L61.9427 19.3638C61.4583 19.8501 60.6277 19.8501 60.1433 19.3638L42.9791 2.1361C40.1415 -0.712033 35.5044 -0.712033 32.6668 2.1361C29.8292 4.98423 29.8292 9.6385 32.6668 12.4866L49.8309 29.7144C50.3154 30.2006 50.3154 31.0343 49.8309 31.5205L41.3181 40.0649C40.8336 40.5512 40.0031 40.5512 39.5186 40.0649L12.5958 13.0424C9.7582 10.1942 5.12111 10.1942 2.28349 13.0424C-0.554132 15.8905 -0.554132 20.5448 2.28349 23.3929L30.106 51.3185L35.2276 56.459C38.1344 59.3766 42.7715 59.3766 45.6783 56.459L60.2125 41.871C60.6969 41.3848 61.5275 41.3848 62.0119 41.871L73.0856 52.9857L76.5461 56.459C79.4529 59.3766 84.09 59.3766 86.9968 56.459L93.0181 50.4154L105.753 37.6336C108.383 34.7854 108.037 30.548 105.199 27.6999Z" fill="#FF6D03"/>
<path d="M119.872 13.0424C117.034 10.1942 112.397 10.1942 109.559 13.0424C106.722 15.8905 106.722 20.5447 109.559 23.3929C112.397 26.241 117.034 26.241 119.872 23.3929C122.709 20.5447 122.709 15.8905 119.872 13.0424Z" fill="#FF6D03"/>
<path d="M22.1724 94.1397L16.9919 79.2805H14.4362L9.32484 94.1397L4.42067 79.2805H0L7.6671 99.8653H10.9826L13.5383 93.4581L15.7486 86.9146L17.8899 93.3899L20.5147 99.8653H23.8302L31.3591 79.2805H26.9384L22.1724 94.1397Z" fill="#434343"/>
<path d="M32.8787 81.2573C32.8787 84.052 37.1612 84.052 37.1612 81.2573C37.1612 78.4627 32.8787 78.4627 32.8787 81.2573Z" fill="#434343"/>
<path d="M36.8159 85.3469H33.155V99.9335H36.8159V85.3469Z" fill="#434343"/>
<path d="M43.7231 85.3469H40.0623V99.9335H43.7231V85.3469Z" fill="#434343"/>
<path d="M39.7861 81.2573C39.7861 84.052 44.0687 84.052 44.0687 81.2573C44.0687 78.4627 39.7861 78.4627 39.7861 81.2573Z" fill="#434343"/>
<path d="M53.9459 96.8665C51.6665 96.8665 49.8015 95.3669 49.8015 92.6404C49.8015 90.1185 51.5974 88.3463 54.0149 88.3463C55.051 88.3463 56.0871 88.7552 56.9851 89.505L59.2645 87.1193C57.6758 85.5516 56.0181 85.0063 53.9459 85.0063C49.6633 85.0063 46.1406 87.5283 46.1406 92.7086C46.1406 97.8207 49.6633 100.411 53.9459 100.411C56.0871 100.411 57.883 99.7974 59.6098 98.0934L57.1923 95.7077C56.2943 96.5256 55.1201 96.8665 53.9459 96.8665Z" fill="#434343"/>
<path d="M72.7339 87.392C71.905 85.9606 70.0401 85.0063 68.037 85.0063C63.7544 85.0063 60.3699 87.5965 60.3699 92.5722C60.3699 97.6844 63.6163 100.275 67.9679 100.275C69.6256 100.275 71.905 99.3884 72.7339 97.6844L72.9411 99.7974H76.3948V85.279H72.9411L72.7339 87.392ZM68.3823 97.0027C65.9648 97.0027 64.0307 95.3669 64.0307 92.5722C64.0307 89.7776 65.9648 88.2099 68.3823 88.2099C74.1154 88.2099 74.1154 97.0027 68.3823 97.0027Z" fill="#434343"/>
<path d="M96.2186 85.1426C94.2845 85.1426 92.6268 85.7561 91.3144 87.8009C90.4855 85.8242 88.6896 85.0745 86.9628 85.0745C85.5813 85.0745 83.8545 85.6198 83.0947 87.0512L82.8184 85.279H79.4338V99.7974H83.0947V92.0269C83.0947 90.1184 84.2689 88.4144 86.203 88.4144C88.2061 88.4144 89.2422 90.1184 89.2422 92.0269V99.7974H92.9031V92.0269C92.9031 90.1184 94.1464 88.4144 96.0804 88.4144C98.0145 88.4144 98.8433 90.0503 98.8433 91.9588V99.7974H102.504V91.9588C102.435 87.6646 100.363 85.1426 96.2186 85.1426Z" fill="#434343"/>
<path d="M114.246 85.0745C112.589 85.0745 110.586 85.7561 109.48 87.392L109.273 85.4153H105.889V106H109.55V98.2297C110.586 99.7974 112.865 100.274 114.454 100.274C119.151 100.274 121.845 96.9346 121.845 92.7086C121.775 88.3462 118.736 85.0745 114.246 85.0745ZM113.97 96.7301C111.484 96.7301 109.826 94.8897 109.826 92.6404C109.826 90.3911 111.345 88.5507 113.97 88.5507C116.595 88.5507 118.115 90.3911 118.115 92.6404C118.115 94.8897 116.457 96.7301 113.97 96.7301Z" fill="#434343"/>
</svg>