<svg xmlns="http://www.w3.org/2000/svg" width="12" height="12" viewBox="0 0 12 12" fill="none">
  <path d="M6.50935 8.82786H6.50953L9.4409 5.44921C9.48232 5.40245 9.54109 5.37574 9.60254 5.37574H10.6874C10.778 5.37574 10.8272 5.48232 10.7673 5.5516L6.32355 10.6744C6.28342 10.7207 6.23381 10.7578 6.17807 10.7832C6.12234 10.8087 6.06179 10.8219 6.00053 10.8219C5.93926 10.8219 5.87871 10.8087 5.82298 10.7832C5.76725 10.7578 5.71764 10.7207 5.67751 10.6744L1.23242 5.5516L1.23242 5.5516C1.17247 5.48366 1.22176 5.37574 1.31236 5.37574H2.39718C2.45997 5.37574 2.51874 5.40246 2.55881 5.44921L2.55923 5.44884L2.55881 5.44921L5.49051 8.82823L5.49093 8.82786L5.49135 8.82749L5.49149 8.82738V1.28634C5.49149 1.22772 5.53945 1.17976 5.59807 1.17976H6.40165C6.46027 1.17976 6.50823 1.22772 6.50823 1.28634V8.82786H6.50879H6.50935Z" fill="#F46A6A" stroke="#F46A6A" stroke-width="0.00111607"/>
</svg>