<svg xmlns="http://www.w3.org/2000/svg" width="14" height="15" viewBox="0 0 14 15" fill="none">
  <path d="M3.02632 11.1486C3.05757 11.1486 3.08882 11.1455 3.12007 11.1408L5.74819 10.6798C5.77944 10.6736 5.80913 10.6595 5.83101 10.6361L12.4544 4.01264C12.4689 3.99818 12.4804 3.98101 12.4883 3.96211C12.4961 3.94321 12.5001 3.92295 12.5001 3.90248C12.5001 3.88202 12.4961 3.86175 12.4883 3.84285C12.4804 3.82395 12.4689 3.80678 12.4544 3.79233L9.85757 1.19389C9.82788 1.1642 9.78882 1.14857 9.74663 1.14857C9.70444 1.14857 9.66538 1.1642 9.63569 1.19389L3.01226 7.81733C2.98882 7.84076 2.97476 7.86889 2.96851 7.90014L2.50757 10.5283C2.49237 10.612 2.4978 10.6981 2.52339 10.7792C2.54898 10.8604 2.59397 10.9341 2.65444 10.9939C2.75757 11.0939 2.88726 11.1486 3.02632 11.1486ZM4.07944 8.42358L9.74663 2.75795L10.8919 3.90326L5.22476 9.56889L3.83569 9.8142L4.07944 8.42358ZM12.7498 12.4611H1.24976C0.973193 12.4611 0.749756 12.6845 0.749756 12.9611V13.5236C0.749756 13.5923 0.806006 13.6486 0.874756 13.6486H13.1248C13.1935 13.6486 13.2498 13.5923 13.2498 13.5236V12.9611C13.2498 12.6845 13.0263 12.4611 12.7498 12.4611Z" fill="white"/>
</svg>