<svg xmlns="http://www.w3.org/2000/svg" width="14" height="14" viewBox="0 0 14 14" fill="none">
  <path d="M13.875 5.44081H9.875C9.80625 5.44081 9.75 5.49706 9.75 5.56581V6.31581C9.75 6.38456 9.80625 6.44081 9.875 6.44081H13.875C13.9437 6.44081 14 6.38456 14 6.31581V5.56581C14 5.49706 13.9437 5.44081 13.875 5.44081ZM11.7812 7.56581H9.875C9.80625 7.56581 9.75 7.62206 9.75 7.69081V8.44081C9.75 8.50956 9.80625 8.56581 9.875 8.56581H11.7812C11.85 8.56581 11.9062 8.50956 11.9062 8.44081V7.69081C11.9062 7.62206 11.85 7.56581 11.7812 7.56581ZM6.56718 4.04237H5.89062C5.79375 4.04237 5.71562 4.12049 5.71562 4.21737V8.09237C5.71562 8.14862 5.74218 8.20018 5.7875 8.23299L8.11406 9.92987C8.19218 9.98612 8.30156 9.97049 8.35781 9.89237L8.75937 9.34393V9.34237C8.81562 9.26424 8.79844 9.15487 8.72031 9.09862L6.74062 7.66737V4.21737C6.74218 4.12049 6.6625 4.04237 6.56718 4.04237Z" fill="black" fill-opacity="0.25"/>
  <path d="M11.6849 9.52909H10.7818C10.6943 9.52909 10.6115 9.5744 10.5646 9.6494C10.3659 9.96442 10.1326 10.2563 9.86928 10.5197C9.41582 10.9747 8.87825 11.3371 8.28647 11.5869C7.67241 11.8463 7.02084 11.9775 6.34897 11.9775C5.67553 11.9775 5.02397 11.8463 4.41147 11.5869C3.81928 11.3369 3.28647 10.9775 2.82865 10.5197C2.37084 10.0619 2.01147 9.52909 1.76147 8.9369C1.50209 8.3244 1.37084 7.67284 1.37084 6.9994C1.37084 6.32596 1.50209 5.67597 1.76147 5.0619C2.01147 4.46972 2.37084 3.9369 2.82865 3.47909C3.28647 3.02128 3.81928 2.6619 4.41147 2.4119C5.02397 2.15253 5.67709 2.02128 6.34897 2.02128C7.02241 2.02128 7.67397 2.15253 8.28647 2.4119C8.87866 2.6619 9.41147 3.02128 9.86928 3.47909C10.1326 3.74248 10.3659 4.03438 10.5646 4.3494C10.6115 4.4244 10.6943 4.46972 10.7818 4.46972H11.6849C11.7927 4.46972 11.8615 4.35721 11.813 4.2619C10.7943 2.23534 8.72865 0.918152 6.4224 0.89159C3.04584 0.849402 0.241154 3.61347 0.234904 6.9869C0.228654 10.3666 2.96772 13.1088 6.3474 13.1088C8.68334 13.1088 10.7833 11.7869 11.813 9.7369C11.824 9.71504 11.8292 9.69073 11.8282 9.66628C11.8271 9.64184 11.8198 9.61808 11.8069 9.59725C11.7941 9.57642 11.7762 9.55923 11.7548 9.5473C11.7334 9.53537 11.7094 9.5291 11.6849 9.52909Z" fill="black" fill-opacity="0.25"/>
</svg>