<svg xmlns="http://www.w3.org/2000/svg" width="47" height="24" viewBox="0 0 47 24" fill="none">
  <path d="M40.1634 11.3791C39.0817 10.2894 37.3002 10.2894 36.2186 11.3791L31.5103 16.1224C31.3195 16.3147 31.0013 16.3147 30.8105 16.1224L27.5656 12.8534C27.3747 12.6611 27.3747 12.3405 27.5656 12.1482L34.0872 5.57804C35.1688 4.48834 35.1688 2.69358 34.0872 1.60389C33.0055 0.514198 31.224 0.514198 30.1424 1.60389L23.6208 8.1741C23.4299 8.3664 23.1118 8.3664 22.9209 8.1741L16.3994 1.60389C15.3177 0.514198 13.5362 0.514198 12.4546 1.60389C11.373 2.69358 11.373 4.48834 12.4546 5.57804L18.9762 12.1482C19.1671 12.3405 19.1671 12.6611 18.9762 12.8534L15.7313 16.1224C15.5404 16.3147 15.2223 16.3147 15.0314 16.1224L4.75598 5.77037C3.67435 4.68067 1.89285 4.68067 0.81122 5.77037C-0.270407 6.86006 -0.270407 8.65482 0.81122 9.74451L11.4048 20.4171L13.3454 22.3721C14.4588 23.4939 16.2403 23.4939 17.3219 22.3721L22.8573 16.7955C23.0482 16.6032 23.3663 16.6032 23.5572 16.7955L27.7883 21.0581L29.0926 22.3721C30.206 23.4939 31.9875 23.4939 33.0692 22.3721L35.3597 20.0646L40.1952 15.193C41.404 14.1353 41.245 12.5008 40.1634 11.3791Z" fill="#FF6D03"/>
  <path d="M45.7623 5.77015C44.6807 4.68046 42.8992 4.68046 41.8176 5.77015C40.7359 6.85984 40.7359 8.6546 41.8176 9.7443C42.8992 10.834 44.6807 10.834 45.7623 9.7443C46.8439 8.6546 46.8439 6.85984 45.7623 5.77015Z" fill="#FF6D03"/>
</svg>