<svg xmlns="http://www.w3.org/2000/svg" width="155" height="28" viewBox="0 0 155 28" fill="none">
  <path d="M50.1441 13.2247C48.7937 11.8642 46.5695 11.8642 45.2191 13.2247L39.3408 19.1468C39.1025 19.3869 38.7053 19.3869 38.467 19.1468L34.4158 15.0654C34.1774 14.8253 34.1774 14.4251 34.4158 14.185L42.558 5.9821C43.9084 4.62162 43.9084 2.38085 42.558 1.02037C41.2076 -0.340122 38.9833 -0.340122 37.6329 1.02037L29.4907 9.2233C29.2524 9.46339 28.8552 9.46339 28.6169 9.2233L20.4747 1.02037C19.1243 -0.340122 16.9001 -0.340122 15.5496 1.02037C14.1992 2.38085 14.1992 4.62162 15.5496 5.9821L23.6919 14.185C23.9302 14.4251 23.9302 14.8253 23.6919 15.0654L19.6406 19.1468C19.4023 19.3869 19.0051 19.3869 18.7668 19.1468L5.93786 6.22223C4.58744 4.86174 2.36323 4.86174 1.01281 6.22223C-0.337604 7.58272 -0.337604 9.82348 1.01281 11.184L14.2389 24.5088L16.6618 26.9496C18.0519 28.3501 20.2761 28.3501 21.6265 26.9496L28.5375 19.9871C28.7758 19.747 29.173 19.747 29.4113 19.9871L34.6938 25.309L36.3222 26.9496C37.7124 28.3501 39.9366 28.3501 41.287 26.9496L44.1467 24.0686L50.1839 17.9864C51.6931 16.6659 51.4946 14.6252 50.1441 13.2247Z" fill="#FF6D03"/>
  <path d="M57.1346 6.22215C55.7842 4.86166 53.56 4.86166 52.2096 6.22215C50.8592 7.58264 50.8592 9.8234 52.2096 11.1839C53.56 12.5444 55.7842 12.5444 57.1346 11.1839C58.4851 9.8234 58.4851 7.58264 57.1346 6.22215Z" fill="#FF6D03"/>
  <path d="M83.6661 19.387L79.9326 8.54309H78.1055L74.4912 19.387L70.9563 8.54309H67.7788L73.2996 23.5885H75.6827L77.47 18.9068L79.0588 14.1051L80.6078 18.8668L82.4745 23.5885H84.8576L90.2196 8.54309H87.0818L83.6661 19.387Z" fill="#595959"/>
  <path d="M91.292 10.0237C91.292 12.0644 94.3503 12.0644 94.3503 10.0237C94.3503 7.98298 91.292 7.98298 91.292 10.0237Z" fill="#595959"/>
  <path d="M94.1517 12.9446H91.5303V23.5884H94.1517V12.9446Z" fill="#595959"/>
  <path d="M99.1165 12.9446H96.4951V23.5884H99.1165V12.9446Z" fill="#595959"/>
  <path d="M96.2568 10.0237C96.2568 12.0644 99.3151 12.0644 99.3151 10.0237C99.3151 7.98298 96.2568 7.98298 96.2568 10.0237Z" fill="#595959"/>
  <path d="M106.425 21.3877C104.796 21.3877 103.446 20.3073 103.446 18.3066C103.446 16.466 104.717 15.1855 106.464 15.1855C107.179 15.1855 107.974 15.4656 108.569 16.0258L110.198 14.3052C109.046 13.1848 107.894 12.7446 106.385 12.7446C103.327 12.7446 100.785 14.5853 100.785 18.3466C100.785 22.108 103.327 23.9486 106.385 23.9486C107.934 23.9486 109.205 23.4685 110.436 22.2681L108.689 20.5474C108.053 21.1877 107.259 21.3877 106.425 21.3877Z" fill="#595959"/>
  <path d="M119.849 14.4651C119.253 13.4248 117.903 12.7445 116.513 12.7445C113.455 12.7045 111.032 14.6252 111.032 18.3065C111.032 22.0278 113.335 23.9485 116.433 23.9485C117.625 23.9085 119.253 23.3083 119.849 22.0679L119.968 23.6284H122.431V13.0246H119.929L119.849 14.4651ZM116.751 21.5077C115.004 21.5077 113.653 20.3072 113.653 18.2665C113.653 16.2658 115.043 15.0654 116.751 15.0654C120.842 15.1054 120.842 21.5077 116.751 21.5077Z" fill="#595959"/>
  <path d="M136.65 12.8647C135.3 12.8647 134.068 13.3048 133.115 14.7854C132.519 13.3048 131.248 12.8247 130.017 12.8247C129.024 12.8247 127.793 13.2248 127.237 14.3052L127.038 13.0248H124.615V23.6286H127.237V17.9065C127.237 16.506 128.071 15.2256 129.461 15.2256C130.891 15.2256 131.606 16.506 131.606 17.9065V23.5885H134.227V17.9065C134.227 16.506 135.101 15.2656 136.491 15.2656C137.881 15.2656 138.477 16.466 138.477 17.8265V23.5485H141.099V17.8265C141.099 14.7054 139.629 12.8647 136.65 12.8647Z" fill="#595959"/>
  <path d="M149.558 12.7847C148.367 12.7847 146.937 13.3049 146.143 14.4653L145.984 12.9847H143.561V27.9901H146.182V22.3081C146.937 23.4685 148.566 23.8287 149.678 23.8287C153.054 23.8287 155 21.3878 155 18.2667C154.96 15.1856 152.815 12.7847 149.558 12.7847ZM149.36 21.3077C147.573 21.3077 146.381 19.9473 146.381 18.3067C146.381 16.6661 147.493 15.3056 149.36 15.3056C151.227 15.3056 152.339 16.6661 152.339 18.3067C152.339 19.9473 151.147 21.3077 149.36 21.3077Z" fill="#595959"/>
</svg>